<svg width="1354" height="188" viewBox="0 0 1354 188" fill="none" xmlns="http://www.w3.org/2000/svg">
<path d="M28.25 123.25H27.25V124.25H28.25V123.25ZM28.25 89.375V88.375H27.25V89.375H28.25ZM96.875 77.625L95.9766 77.1858L95.9725 77.1943L96.875 77.625ZM96.875 51.125L95.9503 51.5057L95.9535 51.5134L95.9568 51.5211L96.875 51.125ZM88.5 40.875L87.9289 41.6959L87.935 41.7001L87.9411 41.7043L88.5 40.875ZM44.75 36.875V35.875H43.75V36.875H44.75ZM44.75 185V186H45.75V185H44.75ZM0.875 185H-0.125V186H0.875V185ZM0.875 3V2H-0.125V3H0.875ZM111.125 11L110.672 11.8916L110.675 11.893L111.125 11ZM135.5 33L134.645 33.519L134.647 33.5224L135.5 33ZM111.125 116L111.543 116.908L111.546 116.907L111.125 116ZM73.5 122.25H28.25V124.25H73.5V122.25ZM29.25 123.25V89.375H27.25V123.25H29.25ZM28.25 90.375H73.5V88.375H28.25V90.375ZM73.5 90.375C79.7685 90.375 84.9495 89.3177 88.9775 87.1286L88.0225 85.3714C84.3838 87.3489 79.5648 88.375 73.5 88.375V90.375ZM88.9775 87.1286C92.9817 84.9524 95.9298 81.9271 97.7775 78.0557L95.9725 77.1943C94.3202 80.6562 91.685 83.3809 88.0225 85.3714L88.9775 87.1286ZM97.7734 78.0642C99.6811 74.162 100.625 69.8008 100.625 65H98.625C98.625 69.5326 97.7356 73.588 95.9766 77.1858L97.7734 78.0642ZM100.625 65C100.625 59.8748 99.6847 55.1138 97.7932 50.7289L95.9568 51.5211C97.732 55.6362 98.625 60.1252 98.625 65H100.625ZM97.7997 50.7443C95.9742 46.3108 93.0547 42.7386 89.0589 40.0457L87.9411 41.7043C91.612 44.1781 94.2758 47.4392 95.9503 51.5057L97.7997 50.7443ZM89.0711 40.0541C85.0239 37.2387 79.8062 35.875 73.5 35.875V37.875C79.5272 37.875 84.3094 39.178 87.9289 41.6959L89.0711 40.0541ZM73.5 35.875H44.75V37.875H73.5V35.875ZM43.75 36.875V185H45.75V36.875H43.75ZM44.75 184H0.875V186H44.75V184ZM1.875 185V3H-0.125V185H1.875ZM0.875 4H73.5V2H0.875V4ZM73.5 4C87.9627 4 100.342 6.6445 110.672 11.8916L111.578 10.1084C100.908 4.68884 88.2039 2 73.5 2V4ZM110.675 11.893C121.106 17.1495 129.084 24.3594 134.645 33.519L136.355 32.481C130.583 22.9739 122.311 15.5171 111.575 10.107L110.675 11.893ZM134.647 33.5224C140.208 42.5999 143 52.9989 143 64.75H145C145 52.6677 142.125 41.9001 136.353 32.4776L134.647 33.5224ZM143 64.75C143 76.3324 140.21 86.3883 134.661 94.9564L136.339 96.0436C142.124 87.1117 145 76.6676 145 64.75H143ZM134.661 94.9564C129.108 103.53 121.137 110.246 110.704 115.093L111.546 116.907C122.279 111.921 130.558 104.97 136.339 96.0436L134.661 94.9564ZM110.707 115.092C100.368 119.851 87.9756 122.25 73.5 122.25V124.25C88.1911 124.25 100.882 121.816 111.543 116.908L110.707 115.092ZM315.75 135.25L314.807 134.917L314.806 134.921L315.75 135.25ZM299.375 163.5L300.113 164.175L300.117 164.171L299.375 163.5ZM274.25 181.375L274.639 182.296L274.646 182.293L274.25 181.375ZM210 181.375L209.604 182.293L209.614 182.297L210 181.375ZM184.75 163.5L184.008 164.171L184.016 164.179L184.75 163.5ZM168.25 135.25L167.305 135.577L167.308 135.585L168.25 135.25ZM168.25 52.875L167.307 52.5418L167.305 52.5481L168.25 52.875ZM184.625 24.625L183.883 23.9543L183.883 23.9547L184.625 24.625ZM209.75 6.75L210.139 7.67119L210.143 7.66955L209.75 6.75ZM274 6.75L273.604 7.66837L273.614 7.67238L274 6.75ZM299.25 24.625L298.508 25.2957L298.512 25.2996L299.25 24.625ZM315.75 52.875L314.807 53.2082L315.75 52.875ZM274.75 66.375L273.773 66.587L273.776 66.6007L274.75 66.375ZM256.875 38.5L256.388 39.3734L256.398 39.3789L256.408 39.3842L256.875 38.5ZM226.75 38.5L227.224 39.3805L227.231 39.377L227.237 39.3734L226.75 38.5ZM215.875 49L215.027 48.47L215.875 49ZM209.25 66.375L208.273 66.1631L208.271 66.172L209.25 66.375ZM209.25 121.5L208.27 121.701L208.273 121.714L209.25 121.5ZM215.875 138.875L215.023 139.398L215.03 139.409L215.875 138.875ZM226.875 149.625L226.388 150.498L226.395 150.502L226.875 149.625ZM268 138.875L267.154 138.341L267.148 138.352L268 138.875ZM274.75 121.5L273.775 121.277L273.773 121.286L274.75 121.5ZM320.625 90.375V97.75H322.625V90.375H320.625ZM320.625 97.75C320.625 111.574 318.68 123.958 314.807 134.917L316.693 135.583C320.654 124.375 322.625 111.76 322.625 97.75H320.625ZM314.806 134.921C311.012 145.808 305.618 155.105 298.633 162.829L300.117 164.171C307.299 156.228 312.822 146.692 316.694 135.579L314.806 134.921ZM298.637 162.825C291.649 170.471 283.391 176.346 273.854 180.457L274.646 182.293C284.442 178.071 292.934 172.029 300.113 164.175L298.637 162.825ZM273.861 180.454C264.33 184.48 253.798 186.5 242.25 186.5V188.5C254.035 188.5 264.836 186.437 274.639 182.296L273.861 180.454ZM242.25 186.5C230.618 186.5 220.001 184.479 210.386 180.453L209.614 182.297C219.499 186.437 230.382 188.5 242.25 188.5V186.5ZM210.396 180.457C200.858 176.345 192.556 170.469 185.484 162.821L184.016 164.179C191.277 172.031 199.809 178.071 209.604 182.293L210.396 180.457ZM185.492 162.829C178.505 155.103 173.069 145.804 169.192 134.915L167.308 135.585C171.264 146.696 176.828 156.23 184.008 164.171L185.492 162.829ZM169.195 134.923C165.404 123.962 163.5 111.576 163.5 97.75H161.5C161.5 111.758 163.429 124.371 167.305 135.577L169.195 134.923ZM163.5 97.75V90.375H161.5V97.75H163.5ZM163.5 90.375C163.5 76.5494 165.404 64.1625 169.195 53.2019L167.305 52.5481C163.429 63.7542 161.5 76.3673 161.5 90.375H163.5ZM169.193 53.2082C173.071 42.2338 178.466 32.9357 185.367 25.2953L183.883 23.9547C176.784 31.8143 171.262 41.3496 167.307 52.5418L169.193 53.2082ZM185.367 25.2957C192.353 17.5699 200.608 11.6974 210.139 7.67119L209.361 5.82881C199.559 9.96929 191.064 16.0135 183.883 23.9543L185.367 25.2957ZM210.143 7.66955C219.756 3.56144 230.37 1.5 242 1.5V-0.5C230.13 -0.5 219.244 1.60523 209.357 5.83045L210.143 7.66955ZM242 1.5C253.545 1.5 264.075 3.56111 273.604 7.66832L274.396 5.83168C264.591 1.60556 253.788 -0.5 242 -0.5V1.5ZM273.614 7.67238C283.228 11.699 291.524 17.5715 298.508 25.2957L299.992 23.9543C292.81 16.0119 284.272 9.96766 274.386 5.82762L273.614 7.67238ZM298.512 25.2996C305.495 32.9395 310.93 42.2361 314.807 53.2082L316.693 52.5418C312.737 41.3472 307.172 31.8105 299.988 23.9504L298.512 25.2996ZM314.807 53.2082C318.68 64.1669 320.625 76.5515 320.625 90.375H322.625C322.625 76.3652 320.654 63.7498 316.693 52.5418L314.807 53.2082ZM278.125 97.75V90.125H276.125V97.75H278.125ZM278.125 90.125C278.125 81.0692 277.329 73.074 275.724 66.1493L273.776 66.6007C275.338 73.3427 276.125 81.1808 276.125 90.125H278.125ZM275.727 66.1631C274.209 59.1603 271.921 53.2499 268.841 48.4592L267.159 49.5408C270.079 54.0834 272.291 59.7564 273.773 66.5869L275.727 66.1631ZM268.841 48.4592C265.759 43.6642 261.927 40.0382 257.342 37.6158L256.408 39.3842C260.656 41.6285 264.241 45.0025 267.159 49.5408L268.841 48.4592ZM257.362 37.6266C252.862 35.1169 247.732 33.875 242 33.875V35.875C247.435 35.875 252.221 37.0497 256.388 39.3734L257.362 37.6266ZM242 33.875C236.026 33.875 230.769 35.1134 226.263 37.6266L227.237 39.3734C231.397 37.0533 236.307 35.875 242 35.875V33.875ZM226.276 37.6195C221.772 40.0446 218.025 43.6738 215.027 48.47L216.723 49.53C219.559 44.9929 223.061 41.622 227.224 39.3805L226.276 37.6195ZM215.027 48.47C212.035 53.2579 209.791 59.1644 208.273 66.1631L210.227 66.5869C211.709 59.7523 213.882 54.0754 216.723 49.53L215.027 48.47ZM208.271 66.172C206.837 73.0881 206.125 81.0753 206.125 90.125H208.125C208.125 81.1747 208.83 73.3286 210.229 66.578L208.271 66.172ZM206.125 90.125V97.75H208.125V90.125H206.125ZM206.125 97.75C206.125 106.717 206.837 114.703 208.27 121.701L210.23 121.299C208.83 114.463 208.125 106.616 208.125 97.75H206.125ZM208.273 121.714C209.791 128.63 212.035 134.532 215.023 139.398L216.727 138.352C213.882 133.718 211.709 128.036 210.227 121.286L208.273 121.714ZM215.03 139.409C218.107 144.281 221.89 147.99 226.388 150.498L227.362 148.752C223.193 146.427 219.643 142.969 216.72 138.341L215.03 139.409ZM226.395 150.502C230.981 153.011 236.276 154.25 242.25 154.25V152.25C236.558 152.25 231.603 151.072 227.355 148.748L226.395 150.502ZM242.25 154.25C247.982 154.25 253.112 153.008 257.612 150.498L256.638 148.752C252.471 151.075 247.685 152.25 242.25 152.25V154.25ZM257.612 150.498C262.113 147.988 265.857 144.276 268.852 139.398L267.148 138.352C264.31 142.974 260.804 146.428 256.638 148.752L257.612 150.498ZM268.845 139.409C271.921 134.54 274.208 128.634 275.727 121.714L273.773 121.286C272.292 128.032 270.079 133.71 267.155 138.341L268.845 139.409ZM275.725 121.723C277.329 114.717 278.125 106.724 278.125 97.75H276.125C276.125 106.61 275.338 114.449 273.775 121.277L275.725 121.723ZM344.375 3V2H343.375V3H344.375ZM452.5 9.25L452.126 10.1774L452.5 9.25ZM476.375 27.75L475.549 28.3144L475.553 28.3201L476.375 27.75ZM466.375 101.5L466.991 102.288L466.993 102.286L466.375 101.5ZM446.25 112.625L445.894 111.69L445.824 111.717L445.758 111.754L446.25 112.625ZM431.875 120.75V121.75H432.138L432.367 121.621L431.875 120.75ZM371.75 120.75L370.75 120.757L370.757 121.75H371.75V120.75ZM371.5 86.875V85.875H370.493L370.5 86.8824L371.5 86.875ZM438.125 75.375L437.235 74.9199L437.231 74.9278L438.125 75.375ZM429.625 39.875L429.146 40.7529L429.154 40.7574L429.625 39.875ZM388.25 36.875V35.875H387.25V36.875H388.25ZM388.25 185V186H389.25V185H388.25ZM344.375 185H343.375V186H344.375V185ZM444 185L443.106 185.447L443.382 186H444V185ZM403.75 104.5L403.745 103.5L402.136 103.509L402.856 104.947L403.75 104.5ZM450.25 104.25L451.138 103.791L450.857 103.247L450.245 103.25L450.25 104.25ZM491 183.125H492V182.882L491.888 182.666L491 183.125ZM491 185V186H492V185H491ZM344.375 4H416V2H344.375V4ZM416 4C429.903 4 441.938 6.06926 452.126 10.1774L452.874 8.32256C442.396 4.0974 430.097 2 416 2V4ZM452.126 10.1774C462.3 14.2799 470.091 20.3307 475.549 28.3144L477.201 27.1856C471.492 18.836 463.366 12.5534 452.874 8.32256L452.126 10.1774ZM475.553 28.3201C481.082 36.2872 483.875 46.1608 483.875 58H485.875C485.875 45.8392 483.002 35.5461 477.197 27.1799L475.553 28.3201ZM483.875 58C483.875 68.3194 482.264 76.8735 479.093 83.7039L480.907 84.5461C484.236 77.3765 485.875 68.5139 485.875 58H483.875ZM479.093 83.7039C475.907 90.567 471.462 96.2316 465.757 100.714L466.993 102.286C472.955 97.6017 477.593 91.683 480.907 84.5461L479.093 83.7039ZM465.759 100.712C460.097 105.144 453.479 108.805 445.894 111.69L446.606 113.56C454.355 110.612 461.153 106.856 466.991 102.288L465.759 100.712ZM445.758 111.754L431.383 119.879L432.367 121.621L446.742 113.496L445.758 111.754ZM431.875 119.75H371.75V121.75H431.875V119.75ZM372.75 120.743L372.5 86.8676L370.5 86.8824L370.75 120.757L372.75 120.743ZM371.5 87.875H416V85.875H371.5V87.875ZM416 87.875C421.696 87.875 426.499 86.8555 430.354 84.7529L429.396 82.9971C425.918 84.8945 421.47 85.875 416 85.875V87.875ZM430.354 84.7529C434.196 82.6571 437.093 79.6751 439.019 75.8222L437.231 74.9278C435.49 78.4082 432.887 81.0929 429.396 82.9971L430.354 84.7529ZM439.015 75.8301C441.019 71.9108 442 67.2896 442 62H440C440 67.0438 439.065 71.3392 437.235 74.9199L439.015 75.8301ZM442 62C442 56.63 441.02 51.9663 439.015 48.0449L437.235 48.9551C439.064 52.5337 440 56.87 440 62H442ZM439.015 48.0449C437.005 44.1111 434.024 41.0879 430.096 38.9926L429.154 40.7574C432.726 42.6621 435.412 45.3889 437.235 48.9551L439.015 48.0449ZM430.104 38.9971C426.253 36.8967 421.536 35.875 416 35.875V37.875C421.298 37.875 425.664 38.8533 429.146 40.7529L430.104 38.9971ZM416 35.875H388.25V37.875H416V35.875ZM387.25 36.875V185H389.25V36.875H387.25ZM388.25 184H344.375V186H388.25V184ZM345.375 185V3H343.375V185H345.375ZM444.894 184.553L404.644 104.053L402.856 104.947L443.106 185.447L444.894 184.553ZM403.755 105.5L450.255 105.25L450.245 103.25L403.745 103.5L403.755 105.5ZM449.362 104.709L490.112 183.584L491.888 182.666L451.138 103.791L449.362 104.709ZM490 183.125V185H492V183.125H490ZM491 184H444V186H491V184ZM593.25 3H594.25V2H593.25V3ZM593.25 185V186H594.25V185H593.25ZM549.375 185H548.375V186H549.375V185ZM549.375 3V2H548.375V3H549.375ZM648 3H649V2H648V3ZM648 36.875V37.875H649V36.875H648ZM495.875 36.875H494.875V37.875H495.875V36.875ZM495.875 3V2H494.875V3H495.875ZM592.25 3V185H594.25V3H592.25ZM593.25 184H549.375V186H593.25V184ZM550.375 185V3H548.375V185H550.375ZM549.375 4H593.25V2H549.375V4ZM647 3V36.875H649V3H647ZM648 35.875H495.875V37.875H648V35.875ZM496.875 36.875V3H494.875V36.875H496.875ZM495.875 4H648V2H495.875V4ZM710.5 3H711.5V2H710.5V3ZM710.5 185V186H711.5V185H710.5ZM666.625 185H665.625V186H666.625V185ZM666.625 3V2H665.625V3H666.625ZM781.25 78.75H782.25V77.75H781.25V78.75ZM781.25 112.5V113.5H782.25V112.5H781.25ZM698 112.5H697V113.5H698V112.5ZM698 78.75V77.75H697V78.75H698ZM788.375 3H789.375V2H788.375V3ZM788.375 36.875V37.875H789.375V36.875H788.375ZM698 36.875H697V37.875H698V36.875ZM698 3V2H697V3H698ZM709.5 3V185H711.5V3H709.5ZM710.5 184H666.625V186H710.5V184ZM667.625 185V3H665.625V185H667.625ZM666.625 4H710.5V2H666.625V4ZM780.25 78.75V112.5H782.25V78.75H780.25ZM781.25 111.5H698V113.5H781.25V111.5ZM699 112.5V78.75H697V112.5H699ZM698 79.75H781.25V77.75H698V79.75ZM787.375 3V36.875H789.375V3H787.375ZM788.375 35.875H698V37.875H788.375V35.875ZM699 36.875V3H697V36.875H699ZM698 4H788.375V2H698V4ZM954.75 135.25L953.807 134.917L953.806 134.921L954.75 135.25ZM938.375 163.5L939.113 164.175L939.117 164.171L938.375 163.5ZM913.25 181.375L913.639 182.296L913.646 182.293L913.25 181.375ZM849 181.375L848.604 182.293L848.614 182.297L849 181.375ZM823.75 163.5L823.008 164.171L823.016 164.179L823.75 163.5ZM807.25 135.25L806.305 135.577L806.308 135.585L807.25 135.25ZM807.25 52.875L806.307 52.5418L806.305 52.5481L807.25 52.875ZM823.625 24.625L822.883 23.9543L822.883 23.9547L823.625 24.625ZM848.75 6.75L849.139 7.67119L849.143 7.66955L848.75 6.75ZM913 6.75L912.604 7.66837L912.614 7.67238L913 6.75ZM938.25 24.625L937.508 25.2957L937.512 25.2996L938.25 24.625ZM954.75 52.875L953.807 53.2082L954.75 52.875ZM913.75 66.375L912.773 66.587L912.776 66.6007L913.75 66.375ZM895.875 38.5L895.388 39.3734L895.398 39.3789L895.408 39.3842L895.875 38.5ZM865.75 38.5L866.224 39.3805L866.231 39.377L866.237 39.3734L865.75 38.5ZM854.875 49L854.027 48.47L854.875 49ZM848.25 66.375L847.273 66.1631L847.271 66.172L848.25 66.375ZM848.25 121.5L847.27 121.701L847.273 121.714L848.25 121.5ZM854.875 138.875L854.023 139.398L854.03 139.409L854.875 138.875ZM865.875 149.625L865.388 150.498L865.395 150.502L865.875 149.625ZM907 138.875L906.154 138.341L906.148 138.352L907 138.875ZM913.75 121.5L912.775 121.277L912.773 121.286L913.75 121.5ZM959.625 90.375V97.75H961.625V90.375H959.625ZM959.625 97.75C959.625 111.574 957.68 123.958 953.807 134.917L955.693 135.583C959.654 124.375 961.625 111.76 961.625 97.75H959.625ZM953.806 134.921C950.012 145.808 944.618 155.105 937.633 162.829L939.117 164.171C946.299 156.228 951.822 146.692 955.694 135.579L953.806 134.921ZM937.637 162.825C930.649 170.471 922.391 176.346 912.854 180.457L913.646 182.293C923.442 178.071 931.934 172.029 939.113 164.175L937.637 162.825ZM912.861 180.454C903.33 184.48 892.798 186.5 881.25 186.5V188.5C893.035 188.5 903.836 186.437 913.639 182.296L912.861 180.454ZM881.25 186.5C869.618 186.5 859.001 184.479 849.386 180.453L848.614 182.297C858.499 186.437 869.382 188.5 881.25 188.5V186.5ZM849.396 180.457C839.858 176.345 831.556 170.469 824.484 162.821L823.016 164.179C830.277 172.031 838.809 178.071 848.604 182.293L849.396 180.457ZM824.492 162.829C817.505 155.103 812.069 145.804 808.192 134.915L806.308 135.585C810.264 146.696 815.828 156.23 823.008 164.171L824.492 162.829ZM808.195 134.923C804.404 123.962 802.5 111.576 802.5 97.75H800.5C800.5 111.758 802.429 124.371 806.305 135.577L808.195 134.923ZM802.5 97.75V90.375H800.5V97.75H802.5ZM802.5 90.375C802.5 76.5494 804.404 64.1625 808.195 53.2019L806.305 52.5481C802.429 63.7542 800.5 76.3673 800.5 90.375H802.5ZM808.193 53.2082C812.071 42.2338 817.466 32.9357 824.367 25.2953L822.883 23.9547C815.784 31.8143 810.262 41.3496 806.307 52.5418L808.193 53.2082ZM824.367 25.2957C831.353 17.5699 839.608 11.6974 849.139 7.67119L848.361 5.82881C838.559 9.96929 830.064 16.0135 822.883 23.9543L824.367 25.2957ZM849.143 7.66955C858.756 3.56144 869.37 1.5 881 1.5V-0.5C869.13 -0.5 858.244 1.60523 848.357 5.83045L849.143 7.66955ZM881 1.5C892.545 1.5 903.075 3.56111 912.604 7.66832L913.396 5.83168C903.591 1.60556 892.788 -0.5 881 -0.5V1.5ZM912.614 7.67238C922.228 11.699 930.524 17.5715 937.508 25.2957L938.992 23.9543C931.81 16.0119 923.272 9.96766 913.386 5.82762L912.614 7.67238ZM937.512 25.2996C944.495 32.9395 949.93 42.2361 953.807 53.2082L955.693 52.5418C951.737 41.3472 946.172 31.8105 938.988 23.9504L937.512 25.2996ZM953.807 53.2082C957.68 64.1669 959.625 76.5515 959.625 90.375H961.625C961.625 76.3652 959.654 63.7498 955.693 52.5418L953.807 53.2082ZM917.125 97.75V90.125H915.125V97.75H917.125ZM917.125 90.125C917.125 81.0692 916.329 73.074 914.724 66.1493L912.776 66.6007C914.338 73.3427 915.125 81.1808 915.125 90.125H917.125ZM914.727 66.1631C913.209 59.1603 910.921 53.2499 907.841 48.4592L906.159 49.5408C909.079 54.0834 911.291 59.7564 912.773 66.5869L914.727 66.1631ZM907.841 48.4592C904.759 43.6642 900.927 40.0382 896.342 37.6158L895.408 39.3842C899.656 41.6285 903.241 45.0025 906.159 49.5408L907.841 48.4592ZM896.362 37.6266C891.862 35.1169 886.732 33.875 881 33.875V35.875C886.435 35.875 891.221 37.0497 895.388 39.3734L896.362 37.6266ZM881 33.875C875.026 33.875 869.769 35.1134 865.263 37.6266L866.237 39.3734C870.397 37.0533 875.307 35.875 881 35.875V33.875ZM865.276 37.6195C860.772 40.0446 857.025 43.6738 854.027 48.47L855.723 49.53C858.559 44.9929 862.061 41.622 866.224 39.3805L865.276 37.6195ZM854.027 48.47C851.035 53.2579 848.791 59.1644 847.273 66.1631L849.227 66.5869C850.709 59.7523 852.882 54.0754 855.723 49.53L854.027 48.47ZM847.271 66.172C845.837 73.0881 845.125 81.0753 845.125 90.125H847.125C847.125 81.1747 847.83 73.3286 849.229 66.578L847.271 66.172ZM845.125 90.125V97.75H847.125V90.125H845.125ZM845.125 97.75C845.125 106.717 845.837 114.703 847.27 121.701L849.23 121.299C847.83 114.463 847.125 106.616 847.125 97.75H845.125ZM847.273 121.714C848.791 128.63 851.035 134.532 854.023 139.398L855.727 138.352C852.882 133.718 850.709 128.036 849.227 121.286L847.273 121.714ZM854.03 139.409C857.107 144.281 860.89 147.99 865.388 150.498L866.362 148.752C862.193 146.427 858.643 142.969 855.72 138.341L854.03 139.409ZM865.395 150.502C869.981 153.011 875.276 154.25 881.25 154.25V152.25C875.558 152.25 870.603 151.072 866.355 148.748L865.395 150.502ZM881.25 154.25C886.982 154.25 892.112 153.008 896.612 150.498L895.638 148.752C891.471 151.075 886.685 152.25 881.25 152.25V154.25ZM896.612 150.498C901.113 147.988 904.857 144.276 907.852 139.398L906.148 138.352C903.31 142.974 899.804 146.428 895.638 148.752L896.612 150.498ZM907.845 139.409C910.921 134.54 913.208 128.634 914.727 121.714L912.773 121.286C911.292 128.032 909.079 133.71 906.155 138.341L907.845 139.409ZM914.725 121.723C916.329 114.717 917.125 106.724 917.125 97.75H915.125C915.125 106.61 914.338 114.449 912.775 121.277L914.725 121.723ZM1103.62 151.25H1104.62V150.25H1103.62V151.25ZM1103.62 185V186H1104.62V185H1103.62ZM1011.62 185H1010.62V186H1011.62V185ZM1011.62 151.25V150.25H1010.62V151.25H1011.62ZM1027.25 3H1028.25V2H1027.25V3ZM1027.25 185V186H1028.25V185H1027.25ZM983.375 185H982.375V186H983.375V185ZM983.375 3V2H982.375V3H983.375ZM1102.62 151.25V185H1104.62V151.25H1102.62ZM1103.62 184H1011.62V186H1103.62V184ZM1012.62 185V151.25H1010.62V185H1012.62ZM1011.62 152.25H1103.62V150.25H1011.62V152.25ZM1026.25 3V185H1028.25V3H1026.25ZM1027.25 184H983.375V186H1027.25V184ZM984.375 185V3H982.375V185H984.375ZM983.375 4H1027.25V2H983.375V4ZM1168.75 3H1169.75V2H1168.75V3ZM1168.75 185V186H1169.75V185H1168.75ZM1125 185H1124V186H1125V185ZM1125 3V2H1124V3H1125ZM1167.75 3V185H1169.75V3H1167.75ZM1168.75 184H1125V186H1168.75V184ZM1126 185V3H1124V185H1126ZM1125 4H1168.75V2H1125V4ZM1347.75 135.25L1346.81 134.917L1346.81 134.921L1347.75 135.25ZM1331.38 163.5L1332.11 164.175L1332.12 164.171L1331.38 163.5ZM1306.25 181.375L1306.64 182.296L1306.65 182.293L1306.25 181.375ZM1242 181.375L1241.6 182.293L1241.61 182.297L1242 181.375ZM1216.75 163.5L1216.01 164.171L1216.02 164.179L1216.75 163.5ZM1200.25 135.25L1199.3 135.577L1199.31 135.585L1200.25 135.25ZM1200.25 52.875L1199.31 52.5418L1199.3 52.5481L1200.25 52.875ZM1216.62 24.625L1215.88 23.9543L1215.88 23.9547L1216.62 24.625ZM1241.75 6.75L1242.14 7.67119L1242.14 7.66955L1241.75 6.75ZM1306 6.75L1305.6 7.66837L1305.61 7.67238L1306 6.75ZM1331.25 24.625L1330.51 25.2957L1330.51 25.2996L1331.25 24.625ZM1347.75 52.875L1346.81 53.2082L1347.75 52.875ZM1306.75 66.375L1305.77 66.587L1305.78 66.6007L1306.75 66.375ZM1288.88 38.5L1288.39 39.3734L1288.4 39.3789L1288.41 39.3842L1288.88 38.5ZM1258.75 38.5L1259.22 39.3805L1259.23 39.377L1259.24 39.3734L1258.75 38.5ZM1247.88 49L1247.03 48.47L1247.88 49ZM1241.25 66.375L1240.27 66.1631L1240.27 66.172L1241.25 66.375ZM1241.25 121.5L1240.27 121.701L1240.27 121.714L1241.25 121.5ZM1247.88 138.875L1247.02 139.398L1247.03 139.409L1247.88 138.875ZM1258.88 149.625L1258.39 150.498L1258.39 150.502L1258.88 149.625ZM1300 138.875L1299.15 138.341L1299.15 138.352L1300 138.875ZM1306.75 121.5L1305.78 121.277L1305.77 121.286L1306.75 121.5ZM1352.62 90.375V97.75H1354.62V90.375H1352.62ZM1352.62 97.75C1352.62 111.574 1350.68 123.958 1346.81 134.917L1348.69 135.583C1352.65 124.375 1354.62 111.76 1354.62 97.75H1352.62ZM1346.81 134.921C1343.01 145.808 1337.62 155.105 1330.63 162.829L1332.12 164.171C1339.3 156.228 1344.82 146.692 1348.69 135.579L1346.81 134.921ZM1330.64 162.825C1323.65 170.471 1315.39 176.346 1305.85 180.457L1306.65 182.293C1316.44 178.071 1324.93 172.029 1332.11 164.175L1330.64 162.825ZM1305.86 180.454C1296.33 184.48 1285.8 186.5 1274.25 186.5V188.5C1286.04 188.5 1296.84 186.437 1306.64 182.296L1305.86 180.454ZM1274.25 186.5C1262.62 186.5 1252 184.479 1242.39 180.453L1241.61 182.297C1251.5 186.437 1262.38 188.5 1274.25 188.5V186.5ZM1242.4 180.457C1232.86 176.345 1224.56 170.469 1217.48 162.821L1216.02 164.179C1223.28 172.031 1231.81 178.071 1241.6 182.293L1242.4 180.457ZM1217.49 162.829C1210.51 155.103 1205.07 145.804 1201.19 134.915L1199.31 135.585C1203.26 146.696 1208.83 156.23 1216.01 164.171L1217.49 162.829ZM1201.2 134.923C1197.4 123.962 1195.5 111.576 1195.5 97.75H1193.5C1193.5 111.758 1195.43 124.371 1199.3 135.577L1201.2 134.923ZM1195.5 97.75V90.375H1193.5V97.75H1195.5ZM1195.5 90.375C1195.5 76.5494 1197.4 64.1625 1201.2 53.2019L1199.3 52.5481C1195.43 63.7542 1193.5 76.3673 1193.5 90.375H1195.5ZM1201.19 53.2082C1205.07 42.2338 1210.47 32.9357 1217.37 25.2953L1215.88 23.9547C1208.78 31.8143 1203.26 41.3496 1199.31 52.5418L1201.19 53.2082ZM1217.37 25.2957C1224.35 17.5699 1232.61 11.6974 1242.14 7.67119L1241.36 5.82881C1231.56 9.96929 1223.06 16.0135 1215.88 23.9543L1217.37 25.2957ZM1242.14 7.66955C1251.76 3.56144 1262.37 1.5 1274 1.5V-0.5C1262.13 -0.5 1251.24 1.60523 1241.36 5.83045L1242.14 7.66955ZM1274 1.5C1285.55 1.5 1296.08 3.56111 1305.6 7.66832L1306.4 5.83168C1296.59 1.60556 1285.79 -0.5 1274 -0.5V1.5ZM1305.61 7.67238C1315.23 11.699 1323.52 17.5715 1330.51 25.2957L1331.99 23.9543C1324.81 16.0119 1316.27 9.96766 1306.39 5.82762L1305.61 7.67238ZM1330.51 25.2996C1337.49 32.9395 1342.93 42.2361 1346.81 53.2082L1348.69 52.5418C1344.74 41.3472 1339.17 31.8105 1331.99 23.9504L1330.51 25.2996ZM1346.81 53.2082C1350.68 64.1669 1352.62 76.5515 1352.62 90.375H1354.62C1354.62 76.3652 1352.65 63.7498 1348.69 52.5418L1346.81 53.2082ZM1310.12 97.75V90.125H1308.12V97.75H1310.12ZM1310.12 90.125C1310.12 81.0692 1309.33 73.074 1307.72 66.1493L1305.78 66.6007C1307.34 73.3427 1308.12 81.1808 1308.12 90.125H1310.12ZM1307.73 66.1631C1306.21 59.1603 1303.92 53.2499 1300.84 48.4592L1299.16 49.5408C1302.08 54.0834 1304.29 59.7564 1305.77 66.5869L1307.73 66.1631ZM1300.84 48.4592C1297.76 43.6642 1293.93 40.0382 1289.34 37.6158L1288.41 39.3842C1292.66 41.6285 1296.24 45.0025 1299.16 49.5408L1300.84 48.4592ZM1289.36 37.6266C1284.86 35.1169 1279.73 33.875 1274 33.875V35.875C1279.43 35.875 1284.22 37.0497 1288.39 39.3734L1289.36 37.6266ZM1274 33.875C1268.03 33.875 1262.77 35.1134 1258.26 37.6266L1259.24 39.3734C1263.4 37.0533 1268.31 35.875 1274 35.875V33.875ZM1258.28 37.6195C1253.77 40.0446 1250.02 43.6738 1247.03 48.47L1248.72 49.53C1251.56 44.9929 1255.06 41.622 1259.22 39.3805L1258.28 37.6195ZM1247.03 48.47C1244.03 53.2579 1241.79 59.1644 1240.27 66.1631L1242.23 66.5869C1243.71 59.7523 1245.88 54.0754 1248.72 49.53L1247.03 48.47ZM1240.27 66.172C1238.84 73.0881 1238.12 81.0753 1238.12 90.125H1240.12C1240.12 81.1747 1240.83 73.3286 1242.23 66.578L1240.27 66.172ZM1238.12 90.125V97.75H1240.12V90.125H1238.12ZM1238.12 97.75C1238.12 106.717 1238.84 114.703 1240.27 121.701L1242.23 121.299C1240.83 114.463 1240.12 106.616 1240.12 97.75H1238.12ZM1240.27 121.714C1241.79 128.63 1244.03 134.532 1247.02 139.398L1248.73 138.352C1245.88 133.718 1243.71 128.036 1242.23 121.286L1240.27 121.714ZM1247.03 139.409C1250.11 144.281 1253.89 147.99 1258.39 150.498L1259.36 148.752C1255.19 146.427 1251.64 142.969 1248.72 138.341L1247.03 139.409ZM1258.39 150.502C1262.98 153.011 1268.28 154.25 1274.25 154.25V152.25C1268.56 152.25 1263.6 151.072 1259.36 148.748L1258.39 150.502ZM1274.25 154.25C1279.98 154.25 1285.11 153.008 1289.61 150.498L1288.64 148.752C1284.47 151.075 1279.68 152.25 1274.25 152.25V154.25ZM1289.61 150.498C1294.11 147.988 1297.86 144.276 1300.85 139.398L1299.15 138.352C1296.31 142.974 1292.8 146.428 1288.64 148.752L1289.61 150.498ZM1300.85 139.409C1303.92 134.54 1306.21 128.634 1307.73 121.714L1305.77 121.286C1304.29 128.032 1302.08 133.71 1299.15 138.341L1300.85 139.409ZM1307.72 121.723C1309.33 114.717 1310.12 106.724 1310.12 97.75H1308.12C1308.12 106.61 1307.34 114.449 1305.78 121.277L1307.72 121.723Z" fill="#0038FF"/>
</svg>
